# xmcd
#
# Track frame offsets:
#	187
#	20192
#	40897
#	62720
#	85000
#	114857
#	134212
#	165710
#	184440
#	203962
#	226007
#
# Disc length: 3269 seconds
# Revision: 3
# Processed by: cddbd v1.5.2PL0 Copyright (c) Steve Scherf et al.
# Submitted via: dBpowerAMP V12.0
#
DISCID=980cc30b
DTITLE=Mighty Sam McClain - Give It Up to Love
DYEAR=1992
DGENRE=Blues
TTITLE0=Give It up to Love
TTITLE1=Too Proud
TTITLE2=What You Want Me to Do?
TTITLE3=Here I Go Falling in Love Again
TTITLE4=Got to Have Your Love
TTITLE5=Child of the Mighty Mighty
TTITLE6=I'm Tired of These Blues
TTITLE7=I Feel Good
TTITLE8=Love Me I You Want To
TTITLE9=Don't Turn Back Now
TTITLE10=Lonesome Road
EXTD=
EXTT0=
EXTT1=
EXTT2=
EXTT3=
EXTT4=
EXTT5=
EXTT6=
EXTT7=
EXTT8=
EXTT9=
EXTT10=
PLAYORDER=
